<?xml version="1.0" encoding="iso-8859-1"?>
<!-- Uploaded to: SVG Repo, www.svgrepo.com, Generator: SVG Repo Mixer Tools -->
<svg height="800px" width="800px" version="1.1" id="Layer_1" xmlns="http://www.w3.org/2000/svg" xmlns:xlink="http://www.w3.org/1999/xlink" 
	 viewBox="0 0 512 512" xml:space="preserve">
<g>
	<path style="fill:#68727E;" d="M51.382,346.856c0.003,0.021,0.002,0.043,0.005,0.065l8.551,59.858
		c0.564,3.948,3.947,6.883,7.937,6.883h34.205c3.989,0,7.372-2.934,7.937-6.883l8.551-59.858c0.003-0.021,0.003-0.043,0.005-0.065
		H51.382z"/>
	<path style="fill:#68727E;" d="M393.428,346.856c0.003,0.021,0.002,0.043,0.005,0.065l8.551,59.858
		c0.564,3.95,3.946,6.883,7.937,6.883h34.205c3.989,0,7.372-2.934,7.937-6.883l8.551-59.858c0.003-0.021,0.003-0.043,0.005-0.065
		H393.428z"/>
</g>
<path id="SVGCleanerId_0" style="fill:#C4DF64;" d="M469.779,98.338H42.221C18.941,98.338,0,117.279,0,140.56v179.574
	c0,21.083,15.784,33.67,42.221,33.67h427.557c26.437,0,42.221-12.587,42.221-33.67V140.56
	C512,117.279,493.059,98.338,469.779,98.338z"/>
<g>
	<path id="SVGCleanerId_0_1_" style="fill:#C4DF64;" d="M469.779,98.338H42.221C18.941,98.338,0,117.279,0,140.56v179.574
		c0,21.083,15.784,33.67,42.221,33.67h427.557c26.437,0,42.221-12.587,42.221-33.67V140.56
		C512,117.279,493.059,98.338,469.779,98.338z"/>
</g>
<path style="fill:#A6C451;" d="M507.217,337.77H42.221c-9.169,0-16.636-1.929-21.028-5.431c-2.215-1.766-5.16-4.953-5.16-12.206
	V140.56c0-0.157,0.002-15.664,0.006-33.087C6.279,115.213,0,127.163,0,140.56v179.574c0,21.083,15.784,33.67,42.221,33.67h427.557
	C487.671,353.804,500.674,348.033,507.217,337.77z"/>
<path style="fill:#AFCA62;" d="M384.267,132.543c-51.572,0-93.528,41.956-93.528,93.528s41.956,93.528,93.528,93.528
	s93.528-41.956,93.528-93.528S435.839,132.543,384.267,132.543z"/>
<path style="fill:#D9DCDF;" d="M384.267,140.56c-47.151,0-85.512,38.36-85.512,85.511s38.36,85.511,85.512,85.511
	s85.511-38.36,85.511-85.511S431.418,140.56,384.267,140.56z"/>
<path style="fill:#4D8CCF;" d="M384.267,158.196c-37.426,0-67.875,30.449-67.875,67.875s30.448,67.875,67.875,67.875
	s67.875-30.449,67.875-67.875S421.693,158.196,384.267,158.196z"/>
<path style="fill:#509FE8;" d="M384.267,170.489c-30.648,0-55.582,24.934-55.582,55.582s24.934,55.582,55.582,55.582
	s55.582-24.934,55.582-55.582S414.916,170.489,384.267,170.489z"/>
<g>
	<path style="fill:#AFCA62;" d="M247.449,165.678H59.324c-4.427,0-8.017-3.589-8.017-8.017c0-4.427,3.589-8.017,8.017-8.017h188.125
		c4.427,0,8.017,3.589,8.017,8.017C255.466,162.089,251.876,165.678,247.449,165.678z"/>
	<path style="fill:#AFCA62;" d="M247.449,199.883H59.324c-4.427,0-8.017-3.589-8.017-8.017s3.589-8.017,8.017-8.017h188.125
		c4.427,0,8.017,3.589,8.017,8.017S251.876,199.883,247.449,199.883z"/>
	<path style="fill:#AFCA62;" d="M247.449,234.088H59.324c-4.427,0-8.017-3.589-8.017-8.017s3.589-8.017,8.017-8.017h188.125
		c4.427,0,8.017,3.589,8.017,8.017S251.876,234.088,247.449,234.088z"/>
</g>
<path style="fill:#DF7A6E;" d="M76.426,269.361c-13.851,0-25.119,11.268-25.119,25.119c0,13.851,11.268,25.119,25.119,25.119
	s25.119-11.268,25.119-25.119C101.545,280.629,90.277,269.361,76.426,269.361z"/>
<path style="fill:#FF8C78;" d="M76.426,277.378c-9.43,0-17.102,7.673-17.102,17.102c0,9.43,7.673,17.102,17.102,17.102
	s17.102-7.673,17.102-17.102C93.528,285.05,85.856,277.378,76.426,277.378z"/>
<path style="fill:#F7B14D;" d="M153.386,269.361c-13.851,0-25.119,11.268-25.119,25.119c0,13.851,11.268,25.119,25.119,25.119
	c13.851,0,25.119-11.268,25.119-25.119C178.505,280.629,167.237,269.361,153.386,269.361z"/>
<path style="fill:#FFC44F;" d="M153.386,277.378c-9.43,0-17.102,7.673-17.102,17.102c0,9.43,7.673,17.102,17.102,17.102
	c9.43,0,17.102-7.673,17.102-17.102C170.489,285.05,162.816,277.378,153.386,277.378z"/>
<path style="fill:#4D8CCF;" d="M230.347,269.361c-13.851,0-25.119,11.268-25.119,25.119c0,13.851,11.268,25.119,25.119,25.119
	c13.851,0,25.119-11.268,25.119-25.119C255.466,280.629,244.197,269.361,230.347,269.361z"/>
<path style="fill:#509FE8;" d="M230.347,277.378c-9.43,0-17.102,7.673-17.102,17.102c0,9.43,7.673,17.102,17.102,17.102
	c9.43,0,17.102-7.673,17.102-17.102C247.449,285.05,239.776,277.378,230.347,277.378z"/>
<g>
	<path style="fill:#424F5E;" d="M119.182,413.662H50.772c-4.427,0-8.017-3.589-8.017-8.017c0-4.427,3.589-8.017,8.017-8.017h68.409
		c4.427,0,8.017,3.589,8.017,8.017C127.198,410.072,123.609,413.662,119.182,413.662z"/>
	<path style="fill:#424F5E;" d="M461.228,413.662h-68.409c-4.427,0-8.017-3.589-8.017-8.017c0-4.427,3.589-8.017,8.017-8.017h68.409
		c4.427,0,8.017,3.589,8.017,8.017C469.244,410.072,465.655,413.662,461.228,413.662z"/>
</g>
<circle style="fill:#C5E8FA;" cx="397.094" cy="204.693" r="12.827"/>
</svg>